<svg xmlns="http://www.w3.org/2000/svg" width="19" height="19" viewBox="0 0 19 19"><g><g><path fill="#52c164" d="M9.51 12.689a3.17 3.17 0 0 1 0-6.338 3.17 3.17 0 0 1 0 6.338zm9.43-4.244c-.03-.267-.34-.468-.61-.468a2.11 2.11 0 0 1-1.967-1.301 2.116 2.116 0 0 1 .53-2.35c.205-.186.23-.499.059-.716a9.4 9.4 0 0 0-1.505-1.52.529.529 0 0 0-.722.058c-.567.628-1.584.86-2.37.533A2.11 2.11 0 0 1 11.072.618a.527.527 0 0 0-.466-.555A9.485 9.485 0 0 0 8.468.058a.529.529 0 0 0-.47.543 2.114 2.114 0 0 1-1.3 2.027c-.777.317-1.787.086-2.353-.535a.53.53 0 0 0-.717-.06 9.437 9.437 0 0 0-1.536 1.519.528.528 0 0 0 .056.722c.661.599.875 1.551.531 2.37-.328.781-1.138 1.284-2.067 1.284a.516.516 0 0 0-.548.467 9.517 9.517 0 0 0-.005 2.16c.03.268.351.467.623.467.828-.02 1.622.491 1.955 1.302.332.81.119 1.754-.531 2.35a.528.528 0 0 0-.058.715 9.435 9.435 0 0 0 1.503 1.52c.218.176.535.151.723-.057.569-.628 1.586-.86 2.369-.532a2.107 2.107 0 0 1 1.285 2.062.528.528 0 0 0 .466.555 9.444 9.444 0 0 0 2.137.005.529.529 0 0 0 .47-.544 2.111 2.111 0 0 1 1.3-2.026c.782-.319 1.788-.085 2.353.536a.53.53 0 0 0 .717.06 9.458 9.458 0 0 0 1.537-1.52.527.527 0 0 0-.056-.722 2.105 2.105 0 0 1-.533-2.37 2.127 2.127 0 0 1 1.944-1.288l.117.003a.529.529 0 0 0 .556-.465 9.509 9.509 0 0 0 .005-2.16z"/></g></g></svg>